<?xml version="1.0" encoding="UTF-8" standalone="no"?><!DOCTYPE svg PUBLIC "-//W3C//DTD SVG 1.1//EN" "http://www.w3.org/Graphics/SVG/1.1/DTD/svg11.dtd"><svg width="100%" height="100%" viewBox="0 0 90 46" version="1.1" xmlns="http://www.w3.org/2000/svg" xmlns:xlink="http://www.w3.org/1999/xlink" xml:space="preserve" xmlns:serif="http://www.serif.com/" style="fill-rule:evenodd;clip-rule:evenodd;stroke-linejoin:round;stroke-miterlimit:2;"><path d="M43.929,31.036l-18.007,-31.036c-9.102,5.228 -12.22,16.808 -6.966,25.864l8.494,14.638c1.262,2.175 3.34,3.761 5.777,4.411c2.437,0.65 5.034,0.31 7.22,-0.945c2.185,-1.256 3.779,-3.323 4.432,-5.749c0.654,-2.425 0.312,-5.009 -0.95,-7.183Z" style="fill:#fff;fill-rule:nonzero;"/><path d="M18.994,35.784c0,-5.221 -4.252,-9.453 -9.497,-9.453c-5.245,0 -9.497,4.232 -9.497,9.453c-0,5.22 4.252,9.452 9.497,9.452c5.245,-0 9.497,-4.232 9.497,-9.452Z" style="fill:#fff;fill-rule:nonzero;"/><path d="M54.425,12.162l-6.798,14.052c-0.096,0.206 -0.15,0.429 -0.16,0.657c-0.009,0.227 0.027,0.453 0.105,0.667c0.079,0.213 0.199,0.409 0.353,0.576c0.155,0.167 0.341,0.303 0.548,0.398c0.418,0.193 0.896,0.213 1.329,0.055c0.214,-0.079 0.411,-0.198 0.579,-0.352c0.168,-0.154 0.303,-0.34 0.399,-0.546l0.84,-1.938l5.574,-0l0.884,1.94c0.095,0.208 0.23,0.395 0.398,0.55c0.168,0.156 0.366,0.276 0.581,0.356c0.215,0.079 0.443,0.115 0.672,0.105c0.229,-0.009 0.454,-0.063 0.662,-0.159c0.208,-0.096 0.395,-0.233 0.55,-0.401c0.155,-0.168 0.274,-0.365 0.352,-0.58c0.078,-0.215 0.113,-0.443 0.102,-0.671c-0.01,-0.228 -0.066,-0.452 -0.164,-0.658l-6.806,-14.052Zm1.469,10.604l-2.977,-0l1.508,-3.348l1.469,3.348Z" style="fill:#fff;fill-rule:nonzero;"/><path d="M74.556,12.162c-0.483,0 -0.946,0.191 -1.287,0.531c-0.342,0.34 -0.534,0.802 -0.534,1.283l-0,6.683l-9.426,-8.497l-0,14.674c-0.005,0.241 0.039,0.481 0.128,0.705c0.09,0.224 0.223,0.428 0.393,0.6c0.169,0.172 0.372,0.308 0.595,0.402c0.223,0.093 0.462,0.141 0.704,0.141c0.242,0 0.482,-0.048 0.705,-0.141c0.223,-0.094 0.425,-0.23 0.595,-0.402c0.169,-0.172 0.303,-0.376 0.392,-0.6c0.09,-0.224 0.133,-0.464 0.129,-0.705l-0,-6.682l9.427,8.497l-0,-14.675c-0.001,-0.481 -0.193,-0.942 -0.534,-1.282c-0.342,-0.34 -0.804,-0.532 -1.287,-0.532Z" style="fill:#fff;fill-rule:nonzero;"/><path d="M88.199,20.018c-0.147,-0.119 -0.302,-0.229 -0.464,-0.329c-0.022,-0.016 -0.558,-0.395 -1.525,-0.841c-0.17,-0.078 -0.351,-0.158 -0.547,-0.238c-0.15,-0.061 -0.302,-0.123 -0.455,-0.184l-0.08,-0.032c-1.244,-0.492 -2.109,-0.912 -1.907,-1.857c0.024,-0.135 0.078,-0.263 0.158,-0.374c0.08,-0.111 0.184,-0.203 0.305,-0.267c0.553,-0.301 1.537,-0.158 2.263,0.117c0.371,0.153 0.724,0.346 1.052,0.577c0.077,0.056 0.155,0.113 0.232,0.175c0.068,0.052 0.139,0.099 0.214,0.141c0.059,0.034 0.121,0.065 0.184,0.092c0.371,0.154 0.784,0.172 1.167,0.052c0.383,-0.12 0.712,-0.371 0.929,-0.709c0.216,-0.338 0.307,-0.742 0.256,-1.14c-0.051,-0.398 -0.241,-0.765 -0.536,-1.038l-0.041,-0.037c-0.291,-0.288 -0.611,-0.544 -0.955,-0.764c-0.837,-0.539 -1.853,-0.916 -2.937,-1.089c-0.459,-0.073 -0.923,-0.111 -1.388,-0.112c-2.73,0 -4.711,1.981 -4.711,4.71c0.001,0.807 0.209,1.601 0.605,2.305c0.395,0.704 0.964,1.295 1.652,1.716l0.022,0.014c0.091,0.054 0.581,0.341 1.254,0.656c0.369,0.174 0.734,0.328 1.084,0.458c0.123,0.045 0.248,0.089 0.375,0.132c0.878,0.293 1.466,0.712 1.7,1.212c0.149,0.317 0.15,0.667 0.004,1.039c-0.107,0.276 -0.412,0.506 -0.835,0.629c-0.825,0.241 -2.239,0.108 -3.733,-0.983c-0.131,-0.098 -0.253,-0.194 -0.369,-0.296c-0.337,-0.286 -0.771,-0.43 -1.212,-0.404c-0.441,0.027 -0.855,0.223 -1.155,0.547c-0.3,0.324 -0.463,0.752 -0.455,1.193c0.008,0.442 0.186,0.864 0.497,1.177c0.242,0.241 0.498,0.468 0.766,0.679c0.258,0.208 0.53,0.397 0.815,0.565c1.254,0.763 2.262,0.922 2.305,0.928l0.007,0c0.648,0.16 1.312,0.243 1.978,0.246c3.357,-0 5.282,-1.783 5.282,-4.894c0.003,-0.724 -0.157,-1.439 -0.469,-2.092c-0.312,-0.653 -0.767,-1.227 -1.332,-1.68Z" style="fill:#fff;fill-rule:nonzero;"/></svg>