<?xml version="1.0" encoding="UTF-8" standalone="no"?><!DOCTYPE svg PUBLIC "-//W3C//DTD SVG 1.1//EN" "http://www.w3.org/Graphics/SVG/1.1/DTD/svg11.dtd"><svg width="100%" height="100%" viewBox="0 0 450 74" version="1.1" xmlns="http://www.w3.org/2000/svg" xmlns:xlink="http://www.w3.org/1999/xlink" xml:space="preserve" xmlns:serif="http://www.serif.com/" style="fill-rule:evenodd;clip-rule:evenodd;stroke-linejoin:round;stroke-miterlimit:2;"><path id="Combined-Shape" d="M22.65,0l427.35,0l0,73.125l-450,0l0,-50.175c0,-22.95 22.65,-22.95 22.65,-22.95Zm133.125,68.85l287.85,0l0,-4.275l-287.85,0l0,-51.675l287.85,0l0,-4.275l-416.4,0c0,0 -18.6,0 -18.6,19.05l0,41.25l147.15,0l0,-0.075Zm271.8,-32.25c-0.525,0.975 -1.425,1.425 -2.775,1.425l-1.275,0l0,-9.3c0.15,0 0.3,0 0.375,-0.075l0.825,0c1.125,0 2.025,0.375 2.625,1.2c0.6,0.75 0.9,1.95 0.9,3.375c0.15,1.275 -0.15,2.475 -0.675,3.375Zm7.8,-12.15c-2.55,-1.65 -6.525,-2.55 -11.775,-2.55c-1.275,0 -2.85,0.075 -4.8,0.15c-1.875,0.075 -3.75,0.225 -5.55,0.45l0,32.625l10.35,0l0,-10.725l0.675,0l4.275,8.025c0.825,1.275 1.8,2.175 2.85,2.625c1.05,0.45 2.475,0.675 4.2,0.675c1.275,0 2.4,-0.15 3.3,-0.45c0.975,-0.3 1.8,-0.6 2.55,-0.975l-7.5,-12.375c0.6,-0.3 1.275,-0.75 1.875,-1.35c0.6,-0.6 1.2,-1.275 1.725,-2.1c0.525,-0.825 0.9,-1.725 1.2,-2.775c0.3,-1.05 0.45,-2.25 0.45,-3.525c0.075,-3.45 -1.275,-6.075 -3.825,-7.725Zm-36.45,17.85c-0.225,1.125 -0.525,2.175 -0.975,3.075c-0.45,0.9 -1.05,1.575 -1.8,2.1c-0.75,0.525 -1.65,0.75 -2.7,0.75c-1.05,0 -1.95,-0.225 -2.7,-0.75c-0.75,-0.525 -1.35,-1.2 -1.8,-2.1c-0.45,-0.9 -0.825,-1.875 -1.05,-3.075c-0.225,-1.125 -0.3,-2.4 -0.3,-3.675c0,-1.275 0.075,-2.475 0.3,-3.6c0.225,-1.125 0.6,-2.175 1.05,-3c0.45,-0.9 1.125,-1.575 1.875,-2.025c0.75,-0.525 1.725,-0.75 2.775,-0.75c1.05,0 1.875,0.225 2.625,0.75c0.75,0.525 1.275,1.2 1.8,2.025c0.45,0.9 0.825,1.875 0.975,3c0.225,1.125 0.3,2.325 0.3,3.6c-0.075,1.275 -0.225,2.475 -0.375,3.675Zm9.825,-10.5c-0.6,-2.1 -1.575,-3.9 -2.925,-5.4c-1.275,-1.5 -3,-2.7 -5.025,-3.6c-2.025,-0.9 -4.5,-1.275 -7.275,-1.275c-2.85,0 -5.325,0.45 -7.425,1.35c-2.1,0.9 -3.825,2.175 -5.175,3.675c-1.35,1.575 -2.4,3.375 -3.075,5.475c-0.675,2.1 -0.975,4.275 -0.975,6.6c0,2.4 0.3,4.725 0.9,6.825c0.6,2.1 1.575,3.975 2.85,5.475c1.35,1.575 3,2.775 5.025,3.675c2.025,0.9 4.5,1.35 7.425,1.35c2.925,0 5.4,-0.45 7.5,-1.35c2.1,-0.9 3.825,-2.1 5.175,-3.675c1.35,-1.575 2.325,-3.45 2.925,-5.55c0.6,-2.1 0.975,-4.35 0.975,-6.825c0.075,-2.4 -0.3,-4.65 -0.9,-6.75Zm-51.6,23.25l10.35,0l-0,-24.9l4.275,0c1.125,0 2.025,-0.15 2.7,-0.45c0.75,-0.3 1.275,-0.6 1.725,-1.05c0.45,-0.45 0.75,-0.9 0.9,-1.425c0.15,-0.525 0.225,-1.125 0.225,-1.65c-0,-0.525 -0,-1.125 -0.075,-1.65c-0,-0.525 -0.075,-1.125 -0.15,-1.8l-24.15,0c-1.125,0 -2.025,0.15 -2.775,0.45c-0.75,0.3 -1.35,0.675 -1.8,1.125c-0.45,0.45 -0.825,0.975 -0.975,1.575c-0.225,0.6 -0.3,1.125 -0.3,1.65c-0,0.525 -0,1.05 0.075,1.575c-0,0.45 0.075,1.05 0.15,1.725l9.825,0l0,24.825Zm-20.4,-14.025l-5.55,0l1.8,-6.225c0.15,-0.6 0.375,-1.35 0.6,-2.325c0.225,-0.975 0.375,-1.8 0.375,-2.475l0.15,-0c-0,0.675 0.15,1.5 0.375,2.4c0.225,0.975 0.45,1.8 0.6,2.475l1.65,6.15Zm14.55,14.025l-10.05,-28.8c-0.375,-1.05 -0.825,-1.8 -1.425,-2.4c-0.6,-0.6 -1.2,-1.05 -1.875,-1.35c-0.675,-0.3 -1.35,-0.45 -2.025,-0.525c-0.675,-0.075 -1.275,-0.075 -1.8,-0.075c-1.275,0 -2.475,0.075 -3.6,0.3c-1.125,0.225 -1.95,0.45 -2.625,0.675l-11.025,32.175l10.125,-0l2.625,-7.725l8.625,-0l2.85,7.725l10.2,-0Zm-49.65,-18.45c-0.525,0.975 -1.425,1.425 -2.775,1.425l-1.275,0l-0,-9.3c0.15,0 0.3,0 0.375,-0.075l0.825,0c1.125,0 2.025,0.375 2.625,1.2c0.6,0.75 0.9,1.95 0.9,3.375c0.15,1.275 -0.15,2.475 -0.675,3.375Zm7.8,-12.15c-2.55,-1.65 -6.525,-2.55 -11.775,-2.55c-1.275,0 -2.85,0.075 -4.8,0.15c-1.875,0.075 -3.75,0.225 -5.55,0.45l-0,32.625l10.35,0l-0,-10.725l0.675,0l4.275,8.025c0.825,1.275 1.8,2.175 2.85,2.625c1.05,0.45 2.475,0.675 4.2,0.675c1.275,0 2.4,-0.15 3.3,-0.45c0.975,-0.3 1.8,-0.6 2.55,-0.975l-7.5,-12.375c0.6,-0.3 1.275,-0.75 1.875,-1.35c0.6,-0.6 1.2,-1.275 1.725,-2.1c0.525,-0.825 0.9,-1.725 1.2,-2.775c0.3,-1.05 0.525,-2.25 0.525,-3.525c-0.075,-3.45 -1.35,-6.075 -3.9,-7.725Zm-39.6,23.175l-0,-5.475l9.9,0l-0,-7.575l-9.9,0l-0,-4.875l7.65,0c1.125,0 2.025,-0.15 2.7,-0.45c0.75,-0.3 1.275,-0.675 1.725,-1.05c0.375,-0.45 0.675,-0.9 0.9,-1.5c0.15,-0.525 0.225,-1.05 0.225,-1.65c-0,-0.525 -0,-1.05 -0.075,-1.425c-0,-0.375 -0.075,-0.9 -0.15,-1.575l-23.325,0l-0,32.925l24.15,0c-0,-0.525 0.075,-1.05 0.075,-1.35l-0,-1.35c-0,-0.525 -0.075,-1.125 -0.225,-1.65c-0.15,-0.525 -0.45,-1.05 -0.825,-1.5c-0.375,-0.45 -0.975,-0.825 -1.725,-1.125c-0.75,-0.3 -1.725,-0.45 -2.85,-0.45l-8.25,-0l-0,0.075Zm-33.15,-22.8c-0.525,-0.975 -1.275,-1.65 -2.1,-2.175c-0.825,-0.525 -2.1,-0.75 -3.675,-0.75c-0.9,0 -1.725,0.075 -2.55,0.15c-0.825,0.075 -1.5,0.15 -1.95,0.225l-0,32.85l9.975,0l-0,-16.275l10.725,16.275l8.325,0l-0,-28.35c-0,-1.05 -0.225,-1.875 -0.6,-2.55c-0.375,-0.675 -0.9,-1.125 -1.5,-1.5c-0.6,-0.375 -1.275,-0.6 -2.025,-0.675c-0.75,-0.15 -1.5,-0.15 -2.175,-0.15c-0.375,0 -0.75,0 -1.125,0.075c-0.45,0 -0.825,0.075 -1.2,0.15c-0.45,0.075 -0.9,0.15 -1.35,0.15l-0,17.55l-8.775,-15Zm-27.825,22.8l-0,-5.475l9.9,0l-0,-7.575l-9.9,0l-0,-4.875l7.65,0c1.125,0 2.025,-0.15 2.7,-0.45c0.75,-0.3 1.275,-0.675 1.725,-1.05c0.45,-0.375 0.675,-0.9 0.9,-1.5c0.15,-0.525 0.225,-1.05 0.225,-1.65c-0,-0.525 -0,-1.05 -0.075,-1.425c-0,-0.375 -0.075,-0.9 -0.15,-1.575l-23.325,0l-0,32.925l24.15,0c-0,-0.525 0.075,-1.05 0.075,-1.35l-0,-1.35c-0,-0.525 -0.075,-1.125 -0.225,-1.65c-0.15,-0.525 -0.45,-1.05 -0.825,-1.5c-0.375,-0.45 -0.975,-0.825 -1.725,-1.125c-0.75,-0.3 -1.725,-0.45 -2.85,-0.45l-8.25,0l-0,0.075Zm-29.775,0.075c-0.975,-0.525 -1.8,-1.275 -2.4,-2.175c-0.6,-0.9 -1.05,-1.95 -1.275,-3.15c-0.225,-1.2 -0.375,-2.4 -0.375,-3.675c-0,-1.2 0.15,-2.325 0.375,-3.45c0.225,-1.125 0.675,-2.1 1.275,-3c0.6,-0.9 1.425,-1.575 2.4,-2.175c0.975,-0.525 2.25,-0.825 3.75,-0.825c1.65,0 3.075,0.3 4.275,0.825c1.2,0.525 2.4,1.275 3.525,2.25c0.975,-0.9 1.8,-1.8 2.4,-2.7c0.6,-0.9 0.9,-1.65 0.9,-2.4c-0,-0.675 -0.15,-1.2 -0.45,-1.65c-0.3,-0.45 -0.75,-0.9 -1.2,-1.2c-0.375,-0.225 -0.9,-0.525 -1.5,-0.9c-0.6,-0.3 -1.35,-0.6 -2.25,-0.9c-0.9,-0.3 -1.875,-0.525 -3,-0.675c-1.125,-0.15 -2.325,-0.3 -3.525,-0.3c-2.925,0 -5.475,0.45 -7.65,1.35c-2.175,0.9 -3.975,2.1 -5.475,3.675c-1.5,1.575 -2.55,3.375 -3.3,5.475c-0.75,2.1 -1.05,4.35 -1.05,6.825c-0,2.475 0.375,4.8 1.05,6.9c0.675,2.1 1.8,3.9 3.225,5.4c1.425,1.5 3.225,2.7 5.4,3.525c2.175,0.825 4.725,1.275 7.65,1.275c1.875,0 3.45,-0.15 4.95,-0.375c1.425,-0.225 2.7,-0.525 3.675,-0.825c1.05,-0.3 1.875,-0.675 2.55,-0.975c0.675,-0.375 1.2,-0.675 1.5,-0.975l-0,-10.95c-0,-0.525 -0,-1.05 -0.075,-1.65c-0.075,-0.525 -0.3,-1.05 -0.6,-1.5c-0.375,-0.45 -0.825,-0.75 -1.5,-1.05c-0.675,-0.3 -1.65,-0.45 -2.925,-0.45l-4.5,0l-0,11.1c-0.6,0.075 -1.2,0.15 -1.875,0.15c-1.725,0 -3,-0.225 -3.975,-0.825Zm-59.25,-20.925l-0,7.8l8.4,0l-0,-12.375c0.525,0 0.975,-0.075 1.5,-0.15c0.375,-0.075 0.825,-0.15 1.275,-0.15c0.45,0 0.825,-0.075 1.2,-0.075c0.675,0 1.35,0.075 2.1,0.15c0.75,0.15 1.425,0.375 2.1,0.675c0.6,0.375 1.125,0.825 1.575,1.5c0.375,0.675 0.6,1.5 0.6,2.55l-0,28.275l-10.35,-0l-0,-12.825l-8.4,-0l-0,12.825l-10.275,-0l-0,-32.85c0.525,-0 0.975,-0.075 1.5,-0.15c0.375,-0.075 0.825,-0.15 1.275,-0.15c0.45,-0 0.825,-0.075 1.2,-0.075c0.675,-0 1.425,0.075 2.175,0.15c0.75,0.15 1.425,0.375 2.025,0.675c0.6,0.375 1.125,0.825 1.5,1.5c0.45,0.825 0.6,1.65 0.6,2.7Zm-37.875,21.45c0.6,-0.975 1.2,-1.875 1.95,-2.7c1.275,0.825 2.625,1.575 4.125,2.175c1.425,0.6 2.925,0.9 4.575,0.9c2.325,0 3.45,-0.9 3.45,-2.7c-0,-0.525 -0.15,-0.9 -0.375,-1.275c-0.3,-0.375 -0.675,-0.675 -1.125,-0.975c-0.45,-0.3 -0.975,-0.525 -1.65,-0.75c-0.6,-0.225 -1.275,-0.45 -2.025,-0.675c-1.05,-0.3 -2.175,-0.75 -3.3,-1.2c-1.125,-0.45 -2.175,-1.125 -3.075,-1.875c-0.9,-0.75 -1.65,-1.725 -2.25,-2.85c-0.6,-1.125 -0.9,-2.625 -0.9,-4.35c-0,-1.8 0.375,-3.3 1.125,-4.575c0.75,-1.275 1.725,-2.4 2.925,-3.225c1.2,-0.825 2.625,-1.5 4.2,-1.875c1.575,-0.375 3.225,-0.6 4.95,-0.6c2.325,-0 4.35,0.225 6,0.75c1.65,0.525 2.85,0.975 3.525,1.425c0.675,0.45 1.2,0.9 1.575,1.35c0.375,0.45 0.525,1.05 0.525,1.65c-0,0.675 -0.225,1.35 -0.6,2.1c-0.375,0.75 -1.05,1.65 -1.95,2.85c-0.6,-0.45 -1.275,-0.825 -1.95,-1.125c-0.675,-0.3 -1.425,-0.6 -2.1,-0.825c-0.75,-0.225 -1.425,-0.375 -2.025,-0.525c-0.675,-0.15 -1.2,-0.15 -1.65,-0.15c-1.125,-0 -2.025,0.15 -2.625,0.525c-0.6,0.375 -0.9,0.9 -0.9,1.5c-0,0.675 0.375,1.2 1.05,1.65c0.675,0.375 1.65,0.825 2.925,1.2c1.125,0.375 2.325,0.75 3.525,1.2c1.2,0.45 2.325,1.05 3.375,1.8c0.975,0.75 1.8,1.725 2.475,2.85c0.675,1.125 0.975,2.625 0.975,4.425c-0,1.95 -0.3,3.675 -0.975,5.175c-0.675,1.5 -1.575,2.7 -2.775,3.675c-1.2,0.975 -2.625,1.725 -4.275,2.175c-1.95,0.375 -3.75,0.6 -5.7,0.6c-2.475,0 -4.5,-0.225 -6.15,-0.675c-1.65,-0.45 -3,-0.975 -3.9,-1.5c-0.6,-0.375 -1.05,-0.825 -1.35,-1.35c-0.3,-0.525 -0.45,-1.05 -0.45,-1.65c-0.075,-0.75 0.225,-1.65 0.825,-2.55Zm-16.275,-7.2l-1.65,-6.15c-0.15,-0.675 -0.375,-1.5 -0.6,-2.475c-0.225,-0.975 -0.375,-1.8 -0.375,-2.4l-0.15,0c-0.075,0.675 -0.225,1.5 -0.375,2.475c-0.225,0.975 -0.375,1.8 -0.525,2.325l-1.8,6.225l5.475,0Zm14.475,14.025l-10.2,0l-2.775,-7.725l-8.475,0l-2.625,7.725l-10.125,0l11.025,-32.175c0.675,-0.225 1.5,-0.525 2.625,-0.675c1.125,-0.225 2.25,-0.3 3.6,-0.3c0.525,0 1.125,0 1.8,0.075c0.675,0.075 1.35,0.225 2.025,0.525c0.675,0.3 1.275,0.75 1.875,1.35c0.525,0.6 1.05,1.425 1.425,2.4l9.825,28.8Zm-35.25,-4.425c-0,0.975 -0.45,1.875 -1.425,2.7c-0.225,0.225 -0.525,0.45 -0.975,0.75c-0.45,0.3 -1.05,0.6 -1.8,0.825c-0.75,0.3 -1.65,0.525 -2.7,0.75c-1.05,0.225 -2.325,0.3 -3.75,0.3c-2.85,0 -5.325,-0.45 -7.5,-1.275c-2.1,-0.825 -3.9,-2.025 -5.325,-3.525c-1.425,-1.5 -2.475,-3.3 -3.15,-5.4c-0.675,-2.1 -1.05,-4.425 -1.05,-6.9c-0,-2.475 0.3,-4.8 0.975,-6.9c0.675,-2.1 1.65,-3.9 3.075,-5.475c1.35,-1.575 3.075,-2.775 5.25,-3.6c2.1,-0.9 4.575,-1.35 7.5,-1.35c1.35,0 2.55,0.075 3.6,0.3c1.05,0.225 2.025,0.45 2.775,0.75c0.825,0.3 1.5,0.6 2.1,0.9c0.6,0.3 1.05,0.675 1.35,0.9c0.375,0.3 0.75,0.75 1.2,1.275c0.375,0.525 0.6,1.05 0.6,1.725c-0,0.675 -0.3,1.425 -0.975,2.25c-0.6,0.9 -1.425,1.725 -2.4,2.7c-1.2,-1.05 -2.325,-1.8 -3.375,-2.325c-1.05,-0.525 -2.25,-0.75 -3.675,-0.75c-1.425,0 -2.55,0.3 -3.525,0.825c-0.975,0.525 -1.725,1.275 -2.325,2.175c-0.6,0.9 -0.975,1.875 -1.275,3c-0.3,1.125 -0.375,2.25 -0.375,3.375c-0,1.275 0.15,2.475 0.375,3.6c0.225,1.2 0.675,2.25 1.275,3.15c0.6,0.9 1.35,1.65 2.325,2.175c0.975,0.525 2.175,0.825 3.525,0.825c1.35,0 2.55,-0.225 3.525,-0.675c0.975,-0.45 2.025,-1.125 3.15,-2.1c0.3,0.3 0.6,0.675 0.9,1.05c0.375,0.375 0.675,0.825 0.975,1.275c0.3,0.45 0.525,0.9 0.75,1.35c0.225,0.45 0.375,0.9 0.375,1.35Z" style="fill:#fff;fill-rule:nonzero;"/></svg>