<?xml version="1.0" encoding="utf-8"?>
<!-- Generator: Adobe Illustrator 19.0.0, SVG Export Plug-In . SVG Version: 6.00 Build 0)  -->
<svg version="1.1" id="layer" xmlns="http://www.w3.org/2000/svg" xmlns:xlink="http://www.w3.org/1999/xlink" x="0px" y="0px"
	 viewBox="-153 -46 652 652" style="enable-background:new -153 -46 652 652;" xml:space="preserve">
<style type="text/css">
	.st0{filter:url(#Adobe_OpacityMaskFilter);}
	.st1{fill:#FFFFFF;}
	.st2{mask:url(#mask-2_1_);fill:#024287;}
</style>
<defs>
	<filter id="Adobe_OpacityMaskFilter" filterUnits="userSpaceOnUse" x="-126" y="230.7" width="600" height="97.5">
		<feColorMatrix  type="matrix" values="1 0 0 0 0  0 1 0 0 0  0 0 1 0 0  0 0 0 1 0"/>
	</filter>
</defs>
<mask maskUnits="userSpaceOnUse" x="-126" y="230.7" width="600" height="97.5" id="mask-2_1_">
	<g class="st0">
		<polygon id="path-1_1_" class="st1" points="-126,328.3 -126,230.7 474,230.7 474,328.3 		"/>
	</g>
</mask>
<path id="Combined-Shape" class="st2" d="M-95.8,230.7H474v97.5h-600v-66.9C-126,230.7-95.8,230.7-95.8,230.7z M81.7,322.5h383.8
	v-5.7H81.7v-68.9h383.8v-5.7H81.7H-89.7c0,0-24.8,0-24.8,25.4v55H81.7z M444.1,279.5c-0.7,1.3-1.9,1.9-3.7,1.9h-1.7V269
	c0.2,0,0.4,0,0.5-0.1c0.2,0,0.4,0,0.5,0c0.2,0,0.4,0,0.6,0c1.5,0,2.7,0.5,3.5,1.6c0.8,1,1.2,2.6,1.2,4.5
	C445.2,276.7,444.8,278.3,444.1,279.5z M454.5,263.3c-3.4-2.2-8.7-3.4-15.7-3.4c-1.7,0-3.8,0.1-6.4,0.2c-2.5,0.1-5,0.3-7.4,0.6v43.5
	h13.8v-14.3h0.9l5.7,10.7c1.1,1.7,2.4,2.9,3.8,3.5c1.4,0.6,3.3,0.9,5.6,0.9c1.7,0,3.2-0.2,4.4-0.6c1.3-0.4,2.4-0.8,3.4-1.3l-10-16.5
	c0.8-0.4,1.7-1,2.5-1.8c0.8-0.8,1.6-1.7,2.3-2.8c0.7-1.1,1.2-2.3,1.6-3.7c0.4-1.4,0.6-3,0.6-4.7C459.7,269,457.9,265.5,454.5,263.3z
	 M405.9,287.1c-0.3,1.5-0.7,2.9-1.3,4.1c-0.6,1.2-1.4,2.1-2.4,2.8c-1,0.7-2.2,1-3.6,1c-1.4,0-2.6-0.3-3.6-1c-1-0.7-1.8-1.6-2.4-2.8
	c-0.6-1.2-1.1-2.5-1.4-4.1c-0.3-1.5-0.4-3.2-0.4-4.9c0-1.7,0.1-3.3,0.4-4.8c0.3-1.5,0.8-2.9,1.4-4c0.6-1.2,1.5-2.1,2.5-2.7
	c1-0.7,2.3-1,3.7-1c1.4,0,2.5,0.3,3.5,1c1,0.7,1.7,1.6,2.4,2.7c0.6,1.2,1.1,2.5,1.3,4c0.3,1.5,0.4,3.1,0.4,4.8
	C406.3,283.9,406.1,285.5,405.9,287.1z M419,273.1c-0.8-2.8-2.1-5.2-3.9-7.2c-1.7-2-4-3.6-6.7-4.8c-2.7-1.2-6-1.7-9.7-1.7
	c-3.8,0-7.1,0.6-9.9,1.8c-2.8,1.2-5.1,2.9-6.9,4.9c-1.8,2.1-3.2,4.5-4.1,7.3c-0.9,2.8-1.3,5.7-1.3,8.8c0,3.2,0.4,6.3,1.2,9.1
	c0.8,2.8,2.1,5.3,3.8,7.3c1.8,2.1,4,3.7,6.7,4.9c2.7,1.2,6,1.8,9.9,1.8c3.9,0,7.2-0.6,10-1.8c2.8-1.2,5.1-2.8,6.9-4.9
	c1.8-2.1,3.1-4.6,3.9-7.4c0.8-2.8,1.3-5.8,1.3-9.1C420.3,278.9,419.8,275.9,419,273.1z M350.2,304.1H364v-33.2h5.7
	c1.5,0,2.7-0.2,3.6-0.6c1-0.4,1.7-0.8,2.3-1.4c0.6-0.6,1-1.2,1.2-1.9c0.2-0.7,0.3-1.5,0.3-2.2c0-0.7,0-1.5-0.1-2.2
	c0-0.7-0.1-1.5-0.2-2.4h-32.2c-1.5,0-2.7,0.2-3.7,0.6c-1,0.4-1.8,0.9-2.4,1.5c-0.6,0.6-1.1,1.3-1.3,2.1c-0.3,0.8-0.4,1.5-0.4,2.2
	c0,0.7,0,1.4,0.1,2.1c0,0.6,0.1,1.4,0.2,2.3h13.1V304.1z M323,285.4h-7.4l2.4-8.3c0.2-0.8,0.5-1.8,0.8-3.1c0.3-1.3,0.5-2.4,0.5-3.3
	h0.2c0,0.9,0.2,2,0.5,3.2c0.3,1.3,0.6,2.4,0.8,3.3L323,285.4z M342.4,304.1L329,265.7c-0.5-1.4-1.1-2.4-1.9-3.2
	c-0.8-0.8-1.6-1.4-2.5-1.8c-0.9-0.4-1.8-0.6-2.7-0.7c-0.9-0.1-1.7-0.1-2.4-0.1c-1.7,0-3.3,0.1-4.8,0.4c-1.5,0.3-2.6,0.6-3.5,0.9
	l-14.7,42.9h13.5l3.5-10.3H325l3.8,10.3H342.4z M276.2,279.5c-0.7,1.3-1.9,1.9-3.7,1.9h-1.7V269c0.2,0,0.4,0,0.5-0.1
	c0.2,0,0.4,0,0.5,0c0.2,0,0.4,0,0.6,0c1.5,0,2.7,0.5,3.5,1.6c0.8,1,1.2,2.6,1.2,4.5C277.3,276.7,276.9,278.3,276.2,279.5z
	 M286.6,263.3c-3.4-2.2-8.7-3.4-15.7-3.4c-1.7,0-3.8,0.1-6.4,0.2c-2.5,0.1-5,0.3-7.4,0.6v43.5h13.8v-14.3h0.9l5.7,10.7
	c1.1,1.7,2.4,2.9,3.8,3.5c1.4,0.6,3.3,0.9,5.6,0.9c1.7,0,3.2-0.2,4.4-0.6c1.3-0.4,2.4-0.8,3.4-1.3l-10-16.5c0.8-0.4,1.7-1,2.5-1.8
	c0.8-0.8,1.6-1.7,2.3-2.8c0.7-1.1,1.2-2.3,1.6-3.7c0.4-1.4,0.7-3,0.7-4.7C291.7,269,290,265.5,286.6,263.3z M233.8,294.2v-7.3h13.2
	v-10.1h-13.2v-6.5H244c1.5,0,2.7-0.2,3.6-0.6c1-0.4,1.7-0.9,2.3-1.4c0.5-0.6,0.9-1.2,1.2-2c0.2-0.7,0.3-1.4,0.3-2.2
	c0-0.7,0-1.4-0.1-1.9c0-0.5-0.1-1.2-0.2-2.1H220v43.9h32.2c0-0.7,0.1-1.4,0.1-1.8c0-0.5,0-1.1,0-1.8s-0.1-1.5-0.3-2.2
	c-0.2-0.7-0.6-1.4-1.1-2c-0.5-0.6-1.3-1.1-2.3-1.5c-1-0.4-2.3-0.6-3.8-0.6H233.8z M189.6,263.8c-0.7-1.3-1.7-2.2-2.8-2.9
	c-1.1-0.7-2.8-1-4.9-1c-1.2,0-2.3,0.1-3.4,0.2c-1.1,0.1-2,0.2-2.6,0.3v43.8h13.3v-21.7l14.3,21.7h11.1v-37.8c0-1.4-0.3-2.5-0.8-3.4
	c-0.5-0.9-1.2-1.5-2-2c-0.8-0.5-1.7-0.8-2.7-0.9c-1-0.2-2-0.2-2.9-0.2c-0.5,0-1,0-1.5,0.1c-0.6,0-1.1,0.1-1.6,0.2
	c-0.6,0.1-1.2,0.2-1.8,0.2v23.4L189.6,263.8z M152.5,294.2v-7.3h13.2v-10.1h-13.2v-6.5h10.2c1.5,0,2.7-0.2,3.6-0.6
	c1-0.4,1.7-0.9,2.3-1.4s0.9-1.2,1.2-2c0.2-0.7,0.3-1.4,0.3-2.2c0-0.7,0-1.4-0.1-1.9c0-0.5-0.1-1.2-0.2-2.1h-31.1v43.9h32.2
	c0-0.7,0.1-1.4,0.1-1.8c0-0.5,0-1.1,0-1.8s-0.1-1.5-0.3-2.2c-0.2-0.7-0.6-1.4-1.1-2c-0.5-0.6-1.3-1.1-2.3-1.5
	c-1-0.4-2.3-0.6-3.8-0.6H152.5z M112.8,294.3c-1.3-0.7-2.4-1.7-3.2-2.9c-0.8-1.2-1.4-2.6-1.7-4.2c-0.3-1.6-0.5-3.2-0.5-4.9
	c0-1.6,0.2-3.1,0.5-4.6c0.3-1.5,0.9-2.8,1.7-4c0.8-1.2,1.9-2.1,3.2-2.9c1.3-0.7,3-1.1,5-1.1c2.2,0,4.1,0.4,5.7,1.1
	c1.6,0.7,3.2,1.7,4.7,3c1.3-1.2,2.4-2.4,3.2-3.6c0.8-1.2,1.2-2.2,1.2-3.2c0-0.9-0.2-1.6-0.6-2.2c-0.4-0.6-1-1.2-1.6-1.6
	c-0.5-0.3-1.2-0.7-2-1.2c-0.8-0.4-1.8-0.8-3-1.2c-1.2-0.4-2.5-0.7-4-0.9c-1.5-0.2-3.1-0.4-4.7-0.4c-3.9,0-7.3,0.6-10.2,1.8
	c-2.9,1.2-5.3,2.8-7.3,4.9c-2,2.1-3.4,4.5-4.4,7.3c-1,2.8-1.4,5.8-1.4,9.1c0,3.3,0.5,6.4,1.4,9.2c0.9,2.8,2.4,5.2,4.3,7.2
	s4.3,3.6,7.2,4.7c2.9,1.1,6.3,1.7,10.2,1.7c2.5,0,4.6-0.2,6.6-0.5c1.9-0.3,3.6-0.7,4.9-1.1c1.4-0.4,2.5-0.9,3.4-1.3
	c0.9-0.5,1.6-0.9,2-1.3v-14.6c0-0.7,0-1.4-0.1-2.2c-0.1-0.7-0.4-1.4-0.8-2c-0.5-0.6-1.1-1-2-1.4c-0.9-0.4-2.2-0.6-3.9-0.6h-6v14.8
	c-0.8,0.1-1.6,0.2-2.5,0.2C115.8,295.4,114.1,295.1,112.8,294.3z M33.8,266.4v10.4H45v-16.5c0.7,0,1.3-0.1,2-0.2
	c0.5-0.1,1.1-0.2,1.7-0.2c0.6,0,1.1-0.1,1.6-0.1c0.9,0,1.8,0.1,2.8,0.2c1,0.2,1.9,0.5,2.8,0.9c0.8,0.5,1.5,1.1,2.1,2
	c0.5,0.9,0.8,2,0.8,3.4v37.7H45v-17.1H33.8v17.1H20.1v-43.8c0.7,0,1.3-0.1,2-0.2c0.5-0.1,1.1-0.2,1.7-0.2c0.6,0,1.1-0.1,1.6-0.1
	c0.9,0,1.9,0.1,2.9,0.2c1,0.2,1.9,0.5,2.7,0.9c0.8,0.5,1.5,1.1,2,2C33.6,263.9,33.8,265,33.8,266.4z M-16.7,295
	c0.8-1.3,1.6-2.5,2.6-3.6c1.7,1.1,3.5,2.1,5.5,2.9c1.9,0.8,3.9,1.2,6.1,1.2c3.1,0,4.6-1.2,4.6-3.6c0-0.7-0.2-1.2-0.5-1.7
	c-0.4-0.5-0.9-0.9-1.5-1.3c-0.6-0.4-1.3-0.7-2.2-1c-0.8-0.3-1.7-0.6-2.7-0.9c-1.4-0.4-2.9-1-4.4-1.6c-1.5-0.6-2.9-1.5-4.1-2.5
	c-1.2-1-2.2-2.3-3-3.8c-0.8-1.5-1.2-3.5-1.2-5.8c0-2.4,0.5-4.4,1.5-6.1c1-1.7,2.3-3.2,3.9-4.3c1.6-1.1,3.5-2,5.6-2.5
	c2.1-0.5,4.3-0.8,6.6-0.8c3.1,0,5.8,0.3,8,1c2.2,0.7,3.8,1.3,4.7,1.9c0.9,0.6,1.6,1.2,2.1,1.8c0.5,0.6,0.7,1.4,0.7,2.2
	c0,0.9-0.3,1.8-0.8,2.8c-0.5,1-1.4,2.2-2.6,3.8c-0.8-0.6-1.7-1.1-2.6-1.5c-0.9-0.4-1.9-0.8-2.8-1.1c-1-0.3-1.9-0.5-2.7-0.7
	c-0.9-0.2-1.6-0.2-2.2-0.2c-1.5,0-2.7,0.2-3.5,0.7c-0.8,0.5-1.2,1.2-1.2,2c0,0.9,0.5,1.6,1.4,2.2c0.9,0.5,2.2,1.1,3.9,1.6
	c1.5,0.5,3.1,1,4.7,1.6s3.1,1.4,4.5,2.4c1.3,1,2.4,2.3,3.3,3.8c0.9,1.5,1.3,3.5,1.3,5.9c0,2.6-0.4,4.9-1.3,6.9
	c-0.9,2-2.1,3.6-3.7,4.9c-1.6,1.3-3.5,2.3-5.7,2.9C3,305,0.6,305.3-2,305.3c-3.3,0-6-0.3-8.2-0.9c-2.2-0.6-4-1.3-5.2-2
	c-0.8-0.5-1.4-1.1-1.8-1.8c-0.4-0.7-0.6-1.4-0.6-2.2C-17.9,297.4-17.5,296.2-16.7,295z M-38.4,285.4l-2.2-8.2
	c-0.2-0.9-0.5-2-0.8-3.3c-0.3-1.3-0.5-2.4-0.5-3.2h-0.2c-0.1,0.9-0.3,2-0.5,3.3c-0.3,1.3-0.5,2.4-0.7,3.1l-2.4,8.3H-38.4z
	 M-19.1,304.1h-13.6l-3.7-10.3h-11.3l-3.5,10.3h-13.5l14.7-42.9c0.9-0.3,2-0.7,3.5-0.9c1.5-0.3,3-0.4,4.8-0.4c0.7,0,1.5,0,2.4,0.1
	c0.9,0.1,1.8,0.3,2.7,0.7c0.9,0.4,1.7,1,2.5,1.8c0.7,0.8,1.4,1.9,1.9,3.2L-19.1,304.1z M-66.1,298.2c0,1.3-0.6,2.5-1.9,3.6
	c-0.3,0.3-0.7,0.6-1.3,1c-0.6,0.4-1.4,0.8-2.4,1.1c-1,0.4-2.2,0.7-3.6,1c-1.4,0.3-3.1,0.4-5,0.4c-3.8,0-7.1-0.6-10-1.7
	c-2.8-1.1-5.2-2.7-7.1-4.7c-1.9-2-3.3-4.4-4.2-7.2c-0.9-2.8-1.4-5.9-1.4-9.2c0-3.3,0.4-6.4,1.3-9.2c0.9-2.8,2.2-5.2,4.1-7.3
	c1.8-2.1,4.1-3.7,7-4.8c2.8-1.2,6.1-1.8,10-1.8c1.8,0,3.4,0.1,4.8,0.4c1.4,0.3,2.7,0.6,3.7,1c1.1,0.4,2,0.8,2.8,1.2
	c0.8,0.4,1.4,0.9,1.8,1.2c0.5,0.4,1,1,1.6,1.7c0.5,0.7,0.8,1.4,0.8,2.3c0,0.9-0.4,1.9-1.3,3c-0.8,1.2-1.9,2.3-3.2,3.6
	c-1.6-1.4-3.1-2.4-4.5-3.1c-1.4-0.7-3-1-4.9-1c-1.9,0-3.4,0.4-4.7,1.1c-1.3,0.7-2.3,1.7-3.1,2.9c-0.8,1.2-1.3,2.5-1.7,4
	c-0.4,1.5-0.5,3-0.5,4.5c0,1.7,0.2,3.3,0.5,4.8c0.3,1.6,0.9,3,1.7,4.2c0.8,1.2,1.8,2.2,3.1,2.9c1.3,0.7,2.9,1.1,4.7,1.1
	c1.8,0,3.4-0.3,4.7-0.9c1.3-0.6,2.7-1.5,4.2-2.8c0.4,0.4,0.8,0.9,1.2,1.4c0.5,0.5,0.9,1.1,1.3,1.7c0.4,0.6,0.7,1.2,1,1.8
	C-66.3,297-66.1,297.6-66.1,298.2z"/>
</svg>
