<?xml version="1.0" encoding="UTF-8" standalone="no"?><!DOCTYPE svg PUBLIC "-//W3C//DTD SVG 1.1//EN" "http://www.w3.org/Graphics/SVG/1.1/DTD/svg11.dtd"><svg width="100%" height="100%" viewBox="0 0 500 529" version="1.1" xmlns="http://www.w3.org/2000/svg" xmlns:xlink="http://www.w3.org/1999/xlink" xml:space="preserve" xmlns:serif="http://www.serif.com/" style="fill-rule:evenodd;clip-rule:evenodd;stroke-linejoin:round;stroke-miterlimit:2;"><path d="M258.225,441.798c0.052,-47.681 0.171,-87.475 0.266,-88.432c0.094,-0.957 0.337,-3.642 0.541,-5.966c0.958,-10.966 2.925,-22.341 5.737,-33.185c1.439,-5.55 2.279,-8.165 3.845,-11.976c6.938,-16.878 19.094,-30.011 35.456,-38.306c4.983,-2.526 8.347,-3.826 15.513,-5.993c15.125,-4.573 28.834,-7.078 45.949,-8.395c5.064,-0.389 21.122,-0.391 26.473,-0.005c18.497,1.344 36.795,5.021 52.823,10.614c7.32,2.555 15.319,7.016 21.875,12.201c2.671,2.113 9.068,8.509 11.281,11.282c4.01,5.023 8.003,11.701 10.552,17.649c3.109,7.25 6.4,20.184 8.354,32.829l0.637,4.119c2.733,17.73 2.528,34.548 -0.005,54.404l-0.748,4.723c-1.942,12.274 -5.037,24.541 -7.965,31.577c-5.383,12.933 -14.267,24.129 -25.493,32.123c-8.476,6.037 -16.404,9.487 -30.919,13.455c-15.734,4.3 -30.927,6.536 -48.479,7.134l-4.854,0.166l-12.331,-33.9c-6.782,-18.645 -12.314,-33.921 -12.293,-33.947c0.021,-0.025 0.987,0.291 2.146,0.703c9.17,3.257 25.851,3.874 38.897,1.438c6.357,-1.186 12.128,-3.955 16.658,-7.991c6.674,-5.945 9.906,-12.169 12.285,-23.661c1.582,-7.638 1.992,-12.128 1.877,-20.531c-0.112,-8.206 -0.693,-12.926 -2.498,-20.309c-2.254,-9.221 -5.146,-14.655 -10.528,-19.776c-5.036,-4.792 -10.635,-7.63 -17.789,-9.017c-5.921,-1.148 -9.51,-1.463 -16.66,-1.462c-7.26,0 -11.367,0.359 -16.928,1.476c-10.902,2.189 -19.62,8.593 -24.396,17.923c-3.365,6.574 -5.784,17.434 -6.387,28.68c-0.062,1.162 -0.119,39.222 -0.127,84.579l-0.011,82.466l-72.848,-0l0.094,-86.692l0,0.003Zm-144.752,39.793c-19.791,-0.849 -38.046,-4.099 -55.806,-9.934c-5.278,-1.735 -7.564,-2.67 -11.807,-4.833c-17.895,-9.121 -31.128,-24.749 -37.239,-43.981c-1.114,-3.508 -3.367,-12.682 -4.363,-17.773c-1.717,-8.775 -3.137,-19.748 -3.571,-27.583c-0.247,-4.475 -0.25,-19.626 -0.005,-24.024c1.034,-18.456 5.539,-40.776 10.607,-52.547c7.339,-17.046 20.822,-30.75 37.801,-38.419c3.696,-1.67 6.811,-2.794 12.677,-4.576c40.187,-12.21 83.111,-11.657 123.29,1.588c12.212,4.026 23.695,11.418 31.967,20.579c6.57,7.276 11.889,16.077 15.142,25.053c3.574,9.861 7.615,30.111 8.459,42.383c0.09,1.299 0.207,2.641 0.262,2.983c0.432,2.71 0.607,17.374 0.291,24.485c-0.833,18.761 -5.211,41.818 -10.242,53.942c-2.484,5.986 -6.924,13.468 -10.988,18.519c-6.677,8.296 -16.093,15.684 -25.937,20.35c-10.378,4.918 -29.919,10.019 -46.733,12.198c-10.824,1.403 -23.874,2.017 -33.806,1.59l0.001,0Zm15.974,-64.334c12.401,-1.203 19.27,-3.868 25.79,-10.006c5.261,-4.952 8.319,-10.571 10.529,-19.344c3.697,-14.675 3.705,-30.179 0.021,-44.836c-2.154,-8.572 -4.886,-13.789 -9.784,-18.687c-7.933,-7.933 -17.961,-11.047 -35.445,-11.006c-13.985,0.033 -22.344,1.93 -29.508,6.7c-4.305,2.866 -8.455,7.27 -10.799,11.462c-2.901,5.188 -5.111,13.007 -6.448,22.82c-0.572,4.197 -0.69,15.285 -0.211,19.886c0.956,9.203 3.181,18.222 5.762,23.363c3.427,6.825 8.579,11.966 15.427,15.395c4.931,2.469 9.448,3.491 19.686,4.458c2.493,0.235 11.751,0.108 14.98,-0.205Zm-16.222,-184.322c-2.53,-0.107 -5.55,-0.269 -6.712,-0.359c-2.655,-0.207 -7.134,-0.633 -7.955,-0.757c-0.703,-0.095 -1.407,-0.179 -2.113,-0.251c-0.705,-0.073 -1.409,-0.154 -2.112,-0.245c-0.342,-0.049 -1.163,-0.163 -1.825,-0.254c-0.662,-0.091 -1.389,-0.2 -1.616,-0.242c-0.227,-0.042 -1.587,-0.265 -3.022,-0.495c-11.636,-1.871 -28.039,-6.179 -36.169,-9.499c-6.369,-2.602 -13.411,-6.74 -18.767,-11.03c-3.426,-2.744 -9.056,-8.416 -11.599,-11.687c-6.303,-8.107 -10.522,-16.321 -13.249,-25.795c-3.904,-13.565 -6.601,-29.402 -7.395,-43.422c-0.249,-4.397 -0.256,-19.594 -0.012,-23.863c0.671,-11.713 2.596,-24.627 5.409,-36.293c2.21,-9.166 3.743,-13.602 6.966,-20.161c8.675,-17.651 23.858,-30.942 42.749,-37.421c15.133,-5.19 32.163,-8.662 49.84,-10.161c5.229,-0.443 19.752,-0.593 25.728,-0.266c17.913,0.973 35.626,4.256 52.698,9.768c9.064,2.929 17.519,7.414 24.576,13.035c2.956,2.355 9.31,8.684 11.568,11.524c5.319,6.688 9.905,15.124 12.591,23.157c2.257,6.752 5.053,19.338 6.425,28.92c1.237,8.638 1.841,15.674 2.15,25.044l0.137,4.164l-72.805,0l-0.135,-0.559c-0.075,-0.308 -0.141,-1.557 -0.147,-2.777c-0.04,-7.529 -2.172,-18.833 -4.889,-25.92c-2.179,-5.683 -6.639,-11.343 -11.91,-15.113c-5.202,-3.721 -10.223,-5.481 -19.265,-6.754c-3.965,-0.558 -17.818,-0.639 -21.875,-0.128c-4.08,0.514 -8.884,1.454 -11.062,2.164c-9.463,3.088 -17.198,10.211 -21.019,19.356c-1.787,4.277 -3.567,11.606 -4.495,18.508c-0.69,5.136 -0.85,15.471 -0.318,20.545c0.948,9.041 3.226,18.335 5.695,23.238c4.771,9.473 13.898,16.368 24.333,18.381c10.96,2.116 24.077,2.111 34.58,-0.012c6.84,-1.382 12.772,-4.51 17.623,-9.292c5.719,-5.639 8.63,-11.76 10.874,-22.868c0.414,-2.05 0.772,-3.743 0.795,-3.762c0.087,-0.07 68.137,31.734 68.344,31.941c0.267,0.267 -1.479,7.2 -2.918,11.592c-5.606,17.07 -17.172,31.566 -32.571,40.823c-4.799,2.884 -9.531,5.036 -15.191,6.911c-11.242,3.723 -24.263,6.799 -35.643,8.418c-2.362,0.336 -7.027,0.895 -8.576,1.027c-0.957,0.082 -2.132,0.189 -2.61,0.239c-0.979,0.102 -4.164,0.326 -6.96,0.49c-4.24,0.248 -13.851,0.323 -18.147,0.141l0.001,0Zm262.229,0.152c-0.057,-0.05 -2.341,-0.163 -5.075,-0.251c-2.734,-0.088 -5.363,-0.207 -5.842,-0.265c-1.013,-0.105 -2.028,-0.193 -3.044,-0.264c-0.954,-0.067 -1.907,-0.148 -2.859,-0.243c-0.376,-0.045 -1.411,-0.153 -2.3,-0.24c-1.41,-0.137 -3.997,-0.467 -5.965,-0.762c-0.342,-0.051 -1.125,-0.16 -1.741,-0.243c-9.514,-1.284 -24.227,-4.856 -34.711,-8.427c-11.306,-3.852 -19.991,-9.193 -28.514,-17.537c-9.97,-9.76 -16.29,-20.748 -20.157,-35.046c-3.235,-11.959 -5.135,-23.015 -6.476,-37.678c-0.633,-6.927 -0.639,-24.972 -0.009,-30.354c0.062,-0.532 0.236,-2.365 0.386,-4.074c1.128,-12.851 4.629,-30.53 7.942,-40.108c5.098,-14.737 14.606,-27.526 27.101,-36.454c8.009,-5.722 15.582,-9.109 28.835,-12.897c30.335,-8.67 63.152,-10.098 94.087,-4.093c12.153,2.359 25.135,6.037 32.433,9.189c18.088,7.811 32.353,22.584 39.756,41.171c2.759,6.928 5.75,19.158 7.588,31.028l0.638,4.119c2.429,18.236 2.63,33.738 -0.005,54.405l-0.73,4.598c-1.481,9.329 -3.962,20.122 -6.087,26.474c-3.7,11.064 -9.581,20.666 -17.665,28.845c-7.472,7.557 -15.505,12.94 -25.201,16.885c-8.295,3.374 -24.34,7.586 -36.074,9.468c-1.436,0.23 -2.789,0.451 -3.007,0.491c-0.219,0.041 -0.991,0.149 -1.716,0.241c-0.725,0.092 -1.519,0.206 -1.764,0.253c-0.245,0.048 -1.207,0.163 -2.137,0.256c-0.931,0.094 -1.877,0.205 -2.103,0.247c-0.423,0.078 -4.786,0.495 -7.668,0.732c-4.191,0.345 -17.677,0.746 -17.918,0.534l0.002,0Zm12.774,-64.687c4.878,-0.478 9.79,-1.405 12.507,-2.359c8.762,-3.078 16.101,-9.657 19.957,-17.891c1.955,-4.174 4.127,-12.814 5.152,-20.494c0.541,-4.056 0.628,-16.239 0.145,-20.383c-0.923,-7.925 -2.869,-16.265 -4.895,-20.988c-1.773,-4.135 -5.043,-8.758 -8.276,-11.703c-3.392,-3.089 -8.21,-5.887 -12.609,-7.323c-2.178,-0.71 -6.982,-1.65 -11.062,-2.164c-3.515,-0.443 -17.66,-0.445 -20.881,-0.005c-9.614,1.318 -14.039,2.744 -19.267,6.208c-5.262,3.486 -9.215,7.995 -11.924,13.601c-2.519,5.211 -4.7,14.203 -5.638,23.242c-0.387,3.735 -0.377,14.016 0.018,17.649c0.705,6.492 2.367,14.329 4.059,19.141c4.058,11.541 13.741,19.889 25.916,22.344c8.166,1.645 17.48,2.036 26.798,1.123l-0,0.002Z" style="fill:#01b1dd;fill-rule:nonzero;"/></svg>