<?xml version="1.0" encoding="UTF-8" standalone="no"?><!DOCTYPE svg PUBLIC "-//W3C//DTD SVG 1.1//EN" "http://www.w3.org/Graphics/SVG/1.1/DTD/svg11.dtd"><svg width="100%" height="100%" viewBox="0 0 317 317" version="1.1" xmlns="http://www.w3.org/2000/svg" xmlns:xlink="http://www.w3.org/1999/xlink" xml:space="preserve" xmlns:serif="http://www.serif.com/" style="fill-rule:evenodd;clip-rule:evenodd;stroke-linejoin:round;stroke-miterlimit:2;"><path d="M236.912,155.391c8.201,-47.722 -45.221,-40.709 -45.221,-40.709l-13.369,81.236c-0,0 50.376,7.879 58.59,-40.527m35.638,0.641c-6.133,37.077 -35.917,73.972 -83.527,73.972l-50.488,0l24.503,-148.432l50.446,-0c47.471,-0 65.143,37.09 59.066,74.46m-116.385,-74.139c-24.895,167.572 -106.955,152.218 -106.955,152.218l4.638,-35.456c57.194,0.697 66.917,-116.762 66.917,-116.762l35.4,0Zm154.817,76.221c-0,-84.421 -68.454,-152.875 -152.875,-152.875c-84.435,-0 -152.861,68.454 -152.861,152.875c-0,84.421 68.426,152.875 152.861,152.875c84.421,-0 152.875,-68.454 152.875,-152.875" style="fill:#fff;fill-rule:nonzero;"/></svg>