<?xml version="1.0" encoding="UTF-8" standalone="no"?><!DOCTYPE svg PUBLIC "-//W3C//DTD SVG 1.1//EN" "http://www.w3.org/Graphics/SVG/1.1/DTD/svg11.dtd"><svg width="100%" height="100%" viewBox="0 0 315 68" version="1.1" xmlns="http://www.w3.org/2000/svg" xmlns:xlink="http://www.w3.org/1999/xlink" xml:space="preserve" xmlns:serif="http://www.serif.com/" style="fill-rule:evenodd;clip-rule:evenodd;stroke-linejoin:round;stroke-miterlimit:2;"><path d="M109.734,26.989c-0,-6.68 -4.68,-11.366 -11.834,-11.366l-15.923,-0l0,36.308l6.348,0l-0,-13.575l6.293,-0l8.069,13.575l7.316,0l-8.876,-14.275c4.357,-0.755 8.607,-4.202 8.607,-10.667Zm-21.409,5.764l-0,-11.528l8.714,0c3.604,0 6.186,2.263 6.186,5.764c-0,3.502 -2.582,5.764 -6.186,5.764l-8.714,0Z" style="fill:#fff;fill-rule:nonzero;"/><path d="M118.125,51.877l24.798,0l-0,-5.602l-18.451,-0l0,-10.074l16.245,0l0,-5.602l-16.245,-0l0,-9.374l18.451,0l-0,-5.656l-24.798,-0l-0,36.308Z" style="fill:#fff;fill-rule:nonzero;"/><path d="M165.461,15.569l-13.501,-0l-0,36.308l13.501,0c11.296,0 18.988,-7.434 18.988,-18.1c0,-10.666 -7.692,-18.208 -18.988,-18.208Zm0,30.706l-7.1,-0l-0,-25.05l7.1,0c8.122,0 12.426,5.549 12.426,12.552c-0,6.842 -4.572,12.498 -12.426,12.498Z" style="fill:#fff;fill-rule:nonzero;"/><path d="M220.328,26.989c-0,-6.68 -4.68,-11.366 -11.834,-11.366l-15.922,-0l-0,36.308l6.347,0l0,-13.575l6.294,-0l8.068,13.575l7.316,0l-8.876,-14.275c4.357,-0.755 8.607,-4.202 8.607,-10.667Zm-21.409,5.764l0,-11.528l8.714,0c3.604,0 6.186,2.263 6.186,5.764c0,3.502 -2.582,5.764 -6.186,5.764l-8.714,0Z" style="fill:#fff;fill-rule:nonzero;"/><path d="M307.9,15.569l-7.047,28.012l-7.477,-28.012l-5.056,-0l-7.477,28.012l-7.101,-28.012l-7.1,-0l10.382,36.308l6.777,0l6.993,-26.773l7.1,26.773l6.778,0l10.328,-36.308l-7.1,-0Z" style="fill:#fff;fill-rule:nonzero;"/><path d="M244.695,14.976c-10.299,0 -18.773,8.487 -18.773,18.801c0,10.314 8.474,18.801 18.773,18.801c10.299,-0 18.773,-8.487 18.773,-18.801l0,-0.017c0,-10.305 -8.467,-18.784 -18.756,-18.784l-0.017,0Zm0,30.706c-6.551,0 -11.941,-5.398 -11.941,-11.959c-0,-6.561 5.39,-11.959 11.941,-11.959c6.551,-0 11.942,5.398 11.942,11.959l-0,0.027c-0,6.546 -5.379,11.932 -11.915,11.932l-0.027,0Z" style="fill:#fff;fill-rule:nonzero;"/><path d="M33.673,21.818c5.966,-0.015 10.866,-4.935 10.866,-10.909c-0,-5.985 -4.917,-10.909 -10.893,-10.909c-5.965,0 -10.878,4.908 -10.892,10.882l-0,0.049c-0,5.973 4.906,10.887 10.87,10.887l0.049,-0Zm0,-16.539c3.069,0 5.594,2.53 5.594,5.603c0,3.073 -2.525,5.602 -5.594,5.602c-3.069,0 -5.594,-2.529 -5.594,-5.602l-0,-0.004c-0,-3.072 2.523,-5.599 5.59,-5.599l0.004,0Z" style="fill:#fff;fill-rule:nonzero;"/><path d="M33.673,36.255c-5.258,-12.472 -17.519,-20.622 -31.037,-20.632l-2.636,-0l-0,2.639c0.012,17.452 13.561,32.153 30.93,33.562c-0.377,4.112 -1.624,8.097 -3.658,11.69c-0.239,0.403 -0.365,0.863 -0.365,1.332c-0,0.944 0.511,1.816 1.333,2.277c0.396,0.223 0.838,0.352 1.291,0.377c0.927,-0.004 1.786,-0.496 2.259,-1.293c2.525,-4.365 4.033,-9.245 4.411,-14.276c17.455,-1.342 31.113,-16.083 31.145,-33.615l0,-2.693l-2.635,-0c-13.523,-0.005 -25.792,8.15 -31.038,20.632Zm-28.294,-15.192c13.43,1.307 24.164,12.034 25.497,25.481c-13.422,-1.324 -24.146,-12.041 -25.497,-25.481Zm31.037,25.481c1.347,-13.451 12.066,-24.186 25.497,-25.534c-1.31,13.467 -12.049,24.222 -25.497,25.534Z" style="fill:#fff;fill-rule:nonzero;"/></svg>