<?xml version="1.0" encoding="UTF-8" standalone="no"?><!DOCTYPE svg PUBLIC "-//W3C//DTD SVG 1.1//EN" "http://www.w3.org/Graphics/SVG/1.1/DTD/svg11.dtd"><svg width="100%" height="100%" viewBox="0 0 168 16" version="1.1" xmlns="http://www.w3.org/2000/svg" xmlns:xlink="http://www.w3.org/1999/xlink" xml:space="preserve" xmlns:serif="http://www.serif.com/" style="fill-rule:evenodd;clip-rule:evenodd;stroke-linejoin:round;stroke-miterlimit:2;"><g><path d="M14.541,15.354l-2.896,-0.106l-2.434,0.07c-0.428,-0 -0.659,-0.105 -0.659,-0.281c0,-0.211 0.099,-0.316 0.296,-0.316l0.132,-0c0.164,-0 0.955,-0.316 0.955,-1.3l0,-1.72c0,-3.055 -0.758,-3.687 -3.258,-3.687l-0.624,-0c-0.263,-0 -0.395,0.175 -0.395,0.525l0,5.444c0,0.107 -0.165,0.773 0.888,0.773c0.23,-0 0.361,0.106 0.361,0.281c0,0.247 -0.262,0.387 -0.788,0.387l-2.765,-0.07l-2.828,0.07c-0.363,-0 -0.526,-0.14 -0.526,-0.387c0,-0.211 0.362,-0.246 1.052,-0.316l0.856,-0.105c0.23,-0.036 0.46,-0.07 0.46,-1.757l0,-10.957c0,-0.527 -0.495,-0.808 -1.448,-0.808l-0.394,0c-0.363,0 -0.526,-0.105 -0.526,-0.281c0,-0.245 0.296,-0.387 0.855,-0.387l7.303,0c3.06,0 4.607,1.124 4.607,3.337c0,1.229 -0.791,2.775 -4.574,3.793c0.723,0 5.034,0 5.034,4.777l0,1.334c0,0.634 0.164,0.949 0.493,1.02l0.823,0.139c0.197,0.036 0.296,0.141 0.296,0.317c0,0.141 -0.099,0.211 -0.296,0.211m-8.061,-14.26c-0.559,0 -0.822,0.281 -0.822,0.843l0,5.444l1.513,0c0.658,0 1.973,-0.703 1.973,-3.125c0,-1.23 -0.426,-3.162 -2.664,-3.162m10.772,9.693c-0.033,-0.21 0,-0.386 0.065,-0.386l0.395,-0.07c0.131,-0.036 0.197,0.07 0.363,0.351l1.15,1.897c1.152,1.897 2.5,2.669 3.586,2.669c2.106,0 3.948,-1.862 3.948,-8.043c0,-1.124 -0.592,-0.914 -0.822,-0.914l-7.798,0c-0.59,0 -0.887,-0.175 -0.887,-0.526c0,-2.81 2.994,-5.127 6.052,-5.127c5.133,0 7.205,4.39 7.205,7.516c0,5.373 -4.144,7.797 -7.566,7.797c-1.251,0 -2.73,-0.387 -3.718,-0.703c-0.823,-0.281 -1.316,-0.316 -1.382,-0.843l-0.591,-3.618Zm3.85,-6.18c0,0.526 0.229,0.772 0.723,0.772l3.981,0c0.131,0 0.394,0.036 0.821,0.036c-0.36,-2.741 -1.348,-4.042 -2.961,-4.042c-1.743,0 -2.564,1.968 -2.564,3.234Zm26.865,-3.022l-0.527,0.07c-0.395,0.036 -0.428,0.844 -0.461,1.089c-0.558,7.516 -3.157,10.397 -6.283,12.715c-3.126,-2.318 -5.725,-5.199 -6.284,-12.715c-0.033,-0.245 -0.066,-1.053 -0.461,-1.089l-0.525,-0.07c-0.396,-0.071 -0.462,-0.244 -0.462,-0.385c0,-0.176 0.066,-0.211 0.231,-0.211l2.994,0.105l2.927,-0.07c0.527,0 0.593,0.07 0.593,0.317c0,0.21 -0.199,0.314 -0.559,0.314l-0.231,0c-0.559,0 -1.218,0.562 -1.218,1.3c-0.032,3.302 0.856,10.537 2.995,11.661c2.137,-1.124 3.027,-8.359 2.993,-11.661c0,-0.738 -0.657,-1.3 -1.217,-1.3l-0.23,0c-0.362,0 -0.559,-0.104 -0.559,-0.314c0,-0.247 0.065,-0.317 0.592,-0.317l2.928,0.07l2.994,-0.105c0.164,0 0.229,0.035 0.229,0.211c0,0.141 -0.065,0.314 -0.459,0.385m10.791,14.014c-4.015,-0 -7.435,-2.775 -7.435,-7.516c-0,-4.671 3.453,-7.481 7.435,-7.481c3.98,-0 7.435,2.775 7.435,7.481c-0,4.706 -3.455,7.516 -7.435,7.516m-0,-14.294c-1.975,-0 -3.652,2.002 -3.652,6.778c-0,4.777 1.677,6.779 3.652,6.779c1.941,-0 3.65,-2.002 3.65,-6.779c-0,-4.812 -1.676,-6.778 -3.65,-6.778m24.017,9.905l-0.263,1.509c-0.231,1.195 -0.297,1.687 -0.725,2.458c-0.757,0.106 -1.15,0.141 -1.447,0.141l-10.362,0c-0.298,0 -0.462,-0.07 -0.462,-0.246c-0,-0.175 0.131,-0.281 0.429,-0.281l0.229,0c1.579,0 1.743,-0.175 1.743,-2.915l-0,-10.045c-0,-0.526 -0.46,-0.807 -1.38,-0.807l-0.428,-0c-0.33,-0 -0.494,-0.105 -0.494,-0.281c-0,-0.246 0.33,-0.422 0.953,-0.386l3.653,0.104l3.026,-0.104c0.363,-0 0.527,0.104 0.527,0.315c-0,0.176 -0.066,0.247 -0.23,0.282l-1.612,0.176c-0.626,0.07 -0.724,0.21 -0.724,1.719l-0,10.608c-0,0.844 0.264,1.264 0.823,1.264l1.019,0c1.513,0 2.468,-0.632 3.914,-2.88l0.791,-1.229c0.23,-0.352 0.659,-0.668 0.922,-0.668c0.131,0 0.195,0.175 0.195,0.563c-0,0.21 -0,0.386 -0.097,0.703m17.074,-9.519c-0.493,0.105 -0.756,0.456 -0.756,1.089l0,12.574c0,0.421 -0.099,0.562 -0.329,0.562c-0.1,-0 -0.197,-0.107 -0.363,-0.282l-1.315,-1.299l-1.513,0.738c-1.085,0.456 -1.581,0.561 -2.173,0.561c-4.44,-0 -6.71,-3.09 -6.71,-8.008l0,-4.672c0,-0.877 -0.33,-1.332 -0.988,-1.332l-0.723,-0c-0.296,-0 -0.46,-0.107 -0.46,-0.317c0,-0.176 0.064,-0.281 0.229,-0.281l4.178,-0c0.625,-0 0.921,0.105 0.921,0.35l0,7.166c0,3.09 0.955,6.216 3.191,6.216c2.14,-0 2.896,-1.053 2.896,-2.071l0,-9.203c0,-0.877 -0.098,-1.932 -1.548,-1.932l-0.591,-0c-0.098,-0 -0.129,-0.07 -0.129,-0.245c0,-0.176 0.031,-0.281 0.097,-0.281l6.975,-0c0.23,-0 0.329,0.07 0.329,0.211l0,0.21l-1.218,0.246Zm18.819,3.512c-0.152,-0.02 -0.287,-0.111 -0.361,-0.246l-0.298,-0.631l-1.413,-2.109c-0.593,-0.878 -0.857,-1.123 -1.448,-1.087l-2.138,0.104c-0.23,-0 -0.329,0.141 -0.329,0.422l0,10.747c0,2.143 0.197,2.318 1.744,2.318c0.492,-0 0.624,0.07 0.624,0.211l-0.033,0.316c0,0.106 -0.263,0.07 -0.493,0.07l-6.877,-0c-0.262,-0 -0.528,0.071 -0.528,-0.07l0,-0.281c0,-0.141 0.133,-0.176 0.594,-0.211c1.482,-0.21 1.679,-0.526 1.679,-1.686l0,-10.958c0,-0.632 -0.197,-0.948 -0.592,-0.948l-1.251,-0c-1.25,-0 -1.645,0.175 -1.875,0.527l-2.172,3.442c-0.065,0.105 -0.197,0.176 -0.262,0.176c-0.166,-0 -0.297,-0.176 -0.297,-0.386c0,-0.282 0.131,-0.597 0.297,-2.285c0.197,-1.896 0.393,-2.246 0.986,-2.246c1.415,-0 1.876,0.14 2.632,0.14l3.62,0.035c2.171,0.035 4.605,-0.281 7.304,-0.281c0.393,-0 0.491,0.176 0.59,0.773l0.197,1.405c0.1,0.807 0.199,1.369 0.297,1.686c0.099,0.21 0.099,0.386 0.099,0.562c0,0.35 -0.099,0.491 -0.296,0.491m10.2,-4.249l-0.559,-0c-0.692,-0 -1.514,-0 -1.514,1.931l-0,9.974c-0,1.652 0.625,1.932 1.514,1.932l0.559,-0c0.098,-0 0.131,0.071 0.131,0.246c-0,0.176 -0,0.281 -0.1,0.281l-7.5,-0c-0.098,-0 -0.098,-0.105 -0.098,-0.281c-0,-0.175 0.033,-0.246 0.13,-0.246l0.562,-0c0.886,-0 1.512,-0.28 1.512,-1.932l-0,-9.974c-0,-1.931 -0.822,-1.931 -1.512,-1.931l-0.562,-0c-0.097,-0 -0.163,-0.072 -0.163,-0.246c-0,-0.211 0.033,-0.316 0.131,-0.316l7.5,-0c0.1,-0 0.133,0.105 0.133,0.316c-0,0.174 -0.066,0.246 -0.164,0.246m11.121,14.645c-4.017,-0 -7.437,-2.775 -7.437,-7.516c-0,-4.671 3.455,-7.481 7.437,-7.481c3.98,-0 7.433,2.775 7.433,7.481c-0,4.706 -3.453,7.516 -7.433,7.516m-0,-14.294c-1.976,-0 -3.653,2.002 -3.653,6.778c-0,4.777 1.677,6.779 3.653,6.779c1.939,-0 3.65,-2.002 3.65,-6.779c-0,-4.812 -1.678,-6.778 -3.65,-6.778m26.778,14.013l-7.073,-0c-0.099,-0 -0.164,-0.071 -0.164,-0.246c-0,-0.175 0.032,-0.245 0.131,-0.245l0.56,-0c0.922,-0 1.381,-0.633 1.381,-1.931l-0,-5.55c-0,-2.565 -1.021,-5.901 -3.258,-5.901c-1.282,-0 -2.631,1.545 -2.631,3.408l-0,8.078c-0,0.842 0.066,1.896 1.251,1.825l0.526,-0.035c0.098,-0 0.164,0.106 0.164,0.281c-0,0.211 -0.033,0.316 -0.131,0.316l-6.678,-0c-0.197,-0 -0.297,-0.071 -0.297,-0.175c-0,-0.141 0.067,-0.352 0.133,-0.352l1.019,-0.07c0.559,-0.034 0.855,-0.491 0.855,-1.089l-0,-12.784c-0,-0.421 0.099,-0.562 0.33,-0.562c0.099,-0 0.197,0.105 0.361,0.281l1.085,1.124l2.336,-0.738c0.363,-0.105 0.987,-0.175 1.58,-0.175c3.19,-0 6.514,2.037 6.514,7.938l-0,4.142c-0,0.704 0.13,1.196 0.361,1.477c0.23,0.316 0.56,0.456 1.053,0.456l0.625,-0c0.1,-0 0.164,0.071 0.164,0.247c-0,0.175 -0.064,0.28 -0.197,0.28" style="fill:#1a1919;"/></g></svg>