<?xml version="1.0" encoding="UTF-8" standalone="no"?><!DOCTYPE svg PUBLIC "-//W3C//DTD SVG 1.1//EN" "http://www.w3.org/Graphics/SVG/1.1/DTD/svg11.dtd"><svg width="100%" height="100%" viewBox="0 0 237 53" version="1.1" xmlns="http://www.w3.org/2000/svg" xmlns:xlink="http://www.w3.org/1999/xlink" xml:space="preserve" xmlns:serif="http://www.serif.com/" style="fill-rule:evenodd;clip-rule:evenodd;stroke-linejoin:round;stroke-miterlimit:2;"><path d="M32.19,16.43c0.185,-1.6 -0.489,-3.184 -1.77,-4.16c-1.347,-0.841 -2.926,-1.236 -4.51,-1.13c-2.61,0 -6,0.78 -6,4.09c0,3.81 7.54,4 12.48,5.79c8.75,3.1 11.71,7.89 11.71,13.89c0.01,12.09 -11.76,17.84 -22.7,17.84c-11.57,0 -22.01,-5.28 -21.4,-18.12l15,0c0,2.75 0.64,4.45 1.9,5.71c1.26,1.26 3.17,1.27 5.72,1.27c3,0 6.77,-1.55 6.77,-4.87c0,-3.66 -5.15,-4.16 -12.14,-6.48c-6.13,-2.05 -12,-5.29 -12,-13.69c0,-11.35 11,-16.57 21.16,-16.57c10.72,0 20.38,4 20.1,16.43l-14.32,0Z" style="fill:#ed1d23;fill-rule:nonzero;"/><path d="M68.23,29.13c0.081,-0.395 0.127,-0.797 0.14,-1.2c0,-2.75 -1.76,-4.94 -5.29,-4.94c-3.74,0 -6.21,2.26 -7.27,6.14l12.42,0Zm11,11.78c-0.92,2.46 -3.66,11.56 -19.46,11.56c-13,0 -18.2,-7.26 -18.2,-16.15c0,-16.78 12.84,-22.32 21.94,-22.32c8.11,0 17.91,4.51 17.91,16c0.064,2.136 -0.172,4.27 -0.7,6.34l-26.11,0c0,3.88 1.35,7.13 5.72,7.13c3,0 4.8,-1.35 5.5,-2.61l13.4,0.05Z" style="fill:#ed1d23;fill-rule:nonzero;"/><path d="M105.75,31c0,-4.09 -1.41,-6.77 -5,-6.77c-5.57,0 -7.4,6.84 -7.4,12.13c0,3.32 1.48,6 5.15,6c5.43,0 7.26,-7 7.26,-11.36m-3.1,16.43l-0.14,0c-2.106,3.305 -5.825,5.245 -9.74,5.08c-11.78,-0.04 -13.41,-10.51 -13.41,-14.92c0,-13.89 7.27,-23.59 18.2,-23.59c4.23,0 8.18,1.26 10.58,5.42l3.85,-18.22l14,0l-10.51,50.35l-13.69,0l0.86,-4.12Z" style="fill:#ed1d23;fill-rule:nonzero;"/><path d="M144.83,31c0,-4.09 -1.41,-6.77 -5,-6.77c-5.57,0 -7.4,6.84 -7.4,12.13c0,3.32 1.47,6 5.14,6c5.43,0 7.27,-7 7.27,-11.36m-3.11,16.43l-0.15,0c-2.102,3.299 -5.811,5.238 -9.72,5.08c-11.78,0 -13.41,-10.44 -13.41,-14.88c0,-13.89 7.27,-23.55 18.2,-23.55c4.23,0 8.19,1.26 10.59,5.42l3.76,-18.3l14,0l-10.44,50.35l-13.69,0l0.86,-4.12Z" style="fill:#ed1d23;fill-rule:nonzero;"/><path d="M176.42,42.31c5.5,0 7.48,-8.1 7.48,-11.28c-0,-4.37 -1.13,-6.84 -4.87,-6.84c-5.57,0 -7.55,8.39 -7.55,12.2c-0,3 1,5.92 4.94,5.92m3.67,-28.31c10.72,0 17.77,4.94 17.77,16c-0,9.37 -5.21,22.42 -22.07,22.42c-10.09,0 -18.27,-4.87 -18.27,-17.13c-0,-11.72 7.62,-21.31 22.57,-21.31" style="fill:#ed1d23;fill-rule:nonzero;"/><path d="M201.12,15l13.47,0l-1.06,4.65l0.15,0c2.744,-3.47 6.897,-5.543 11.32,-5.65c6.42,0 11.91,2.68 11.91,9.87c-0.127,2.358 -0.461,4.701 -1,7l-4.44,20.66l-14,0l3.6,-16.78c0.523,-1.99 0.9,-4.015 1.13,-6.06c0,-2.34 -1.7,-3.53 -3.95,-3.53c-4.44,0 -5.93,3.17 -6.77,7l-4.09,19.39l-14,0l7.73,-36.55Z" style="fill:#ed1d23;fill-rule:nonzero;"/></svg>